<svg xmlns="http://www.w3.org/2000/svg" version="1.1" xmlns:xlink="http://www.w3.org/1999/xlink" xmlns:svgjs="http://svgjs.com/svgjs" width="512" height="512" x="0" y="0" viewBox="0 0 64 64" style="enable-background:new 0 0 512 512" xml:space="preserve" class=""><g><g data-name="Layer 36"><path fill="#e30a17" d="M50.13 32a18.13 18.13 0 1 0-20.26 18h4.26a18.12 18.12 0 0 0 16-18zm-13.86-4v-2.14L38 27.22l2-.65-.73 2 1.25 1.74-2.15-.07L37.13 32l-.6-2.06-2-.68zm-13.18 3.7a10 10 0 0 1 9-10 10 10 0 0 0 5.07 18.69 9.77 9.77 0 0 0 1.08-.06 9.93 9.93 0 0 1-5.07 1.39A10 10 0 0 1 23.09 31.7z" data-original="#0c590b" class=""></path><g fill="#f2f2f2"><path d="M38.2 40.35a9.77 9.77 0 0 1-1.08.06 10 10 0 0 1-5.07-18.69 10 10 0 0 0 1.08 20 9.93 9.93 0 0 0 5.07-1.37z" fill="#f2f2f2" data-original="#f2f2f2"></path><path d="m37.13 31.99 1.27-1.73 2.15.07-1.25-1.74.73-2.02-2.05.64-1.69-1.31-.02 2.14-1.78 1.21 2.04.68z" fill="#f2f2f2" data-original="#f2f2f2"></path></g></g></g></svg>