<svg xmlns="http://www.w3.org/2000/svg" version="1.1" xmlns:xlink="http://www.w3.org/1999/xlink" xmlns:svgjs="http://svgjs.com/svgjs" width="512" height="512" x="0" y="0" viewBox="0 0 512 512" style="enable-background:new 0 0 512 512" xml:space="preserve" class=""><g><path d="M511.966 273.481a252.078 252.078 0 0 0-1.815-28.613c-8.207-67.881-42.357-128.503-96.16-170.698-53.802-42.196-120.815-60.914-188.697-52.707-67.881 8.202-128.503 42.349-170.699 96.151C12.4 171.415-6.319 238.429 1.889 306.31c4.378 36.206 16.066 70.281 34.741 101.278 18.038 29.941 41.639 55.501 70.148 75.969 8.077 5.799 17.798 8.869 27.615 8.868 2.943 0 5.897-.276 8.815-.837 12.752-2.453 23.622-9.831 30.609-20.777 13.504-21.155 8.233-49.081-12-63.576-42.16-30.203-67.462-79.127-67.697-130.943.008-4.971.259-10.886.659-15.49 4.029-49.532 26.409-95.487 63.018-129.399 36.81-34.097 84.73-52.875 134.932-52.875 108.69 0 197.331 87.297 199.201 195.321.25 43.963-11.882 87.731-35.137 125.565-2.897 4.714-1.425 10.885 3.29 13.782 4.714 2.898 10.886 1.425 13.782-3.29 24.405-39.706 37.514-85.445 38.087-131.583.084-1.324.037-2.58.014-4.842zM292.729 58.49c-55.268 0-108.024 20.674-148.55 58.213-40.299 37.33-64.937 87.929-69.368 142.42-.389 4.737-.761 11.587-.729 17.229.119 29.248 7.355 58.297 20.927 84.008 13.14 24.895 32.207 46.737 55.138 63.165 11.575 8.291 14.552 24.326 6.779 36.504-3.995 6.259-10.211 10.478-17.503 11.881-7.378 1.42-14.822-.226-20.959-4.631-26.285-18.872-48.044-42.434-64.67-70.032-17.205-28.558-27.975-59.964-32.011-93.342-7.564-62.568 9.689-124.336 48.581-173.925 38.893-49.59 94.769-81.063 157.336-88.623a239.91 239.91 0 0 1 28.793-1.741c47.444 0 93.398 14.222 132.774 41.246-29.144-14.32-61.921-22.372-96.538-22.372z" fill="#0f1c35" data-original="#000000" class=""></path><circle cx="438.508" cy="440.681" r="10.019" fill="#0f1c35" data-original="#000000" class=""></circle></g></svg>