<svg xmlns="http://www.w3.org/2000/svg" version="1.1" xmlns:xlink="http://www.w3.org/1999/xlink" xmlns:svgjs="http://svgjs.com/svgjs" width="512" height="512" x="0" y="0" viewBox="0 0 511.988 511.988" style="enable-background:new 0 0 512 512" xml:space="preserve" class=""><g><path d="M436.987 74.969C366.537 2.919 253.999-19.823 160.9 18.238a7.5 7.5 0 0 0 5.574 13.925c153.174-62.715 326.84 50.85 330.38 216.326h-51.153C440.83 88.768 243.763 6.504 127.167 116.582L90.941 80.355a242.225 242.225 0 0 1 41.173-31.135 7.5 7.5 0 0 0-7.721-12.861 257.122 257.122 0 0 0-49.421 38.587l-.024.023C-85.682 235.073 29.217 512.382 255.97 511.987c227.225-.212 341.538-276.206 181.017-437.018zm-6.14 181.02c-8.792 231.677-340.998 231.628-349.76-.002 0-46.632 18.213-90.527 51.282-123.596 108.048-109.957 299.479-30.516 298.478 123.598zm-415.88 0c0-61.867 23.155-120.176 65.365-165.029l36.229 36.229C6.447 243.821 88.81 440.873 248.467 445.723v51.152c-126.579-1.328-236.102-114.164-233.5-240.886zM426.38 426.401c-43.746 43.747-101.351 68.604-162.913 70.474v-51.152c98.75-3.854 178.379-83.484 182.233-182.234h51.153c-1.869 61.562-26.727 119.166-70.473 162.912z" fill="#0f1c35" data-original="#000000" class=""></path><path d="M123.178 279.93c-4.794 15.181 7.127 31.363 23.078 31.363h38.615a77.85 77.85 0 0 0-4.405 10.961c-4.794 15.181 7.127 31.363 23.078 31.363h50.418a7.5 7.5 0 0 0 0-15h-50.418c-6.93-1.009-9.855-4.958-8.774-11.846 5.931-18.778 20.513-34.059 39.008-40.877 5.713-3.482 6.411-7.779 2.094-12.891-23.739-18.921-9.889-57.196 20.157-57.32 16.981.031 31.381 13.841 32.098 30.785.438 10.374-3.958 20.045-12.062 26.535-4.318 5.112-3.62 9.409 2.095 12.891 18.494 6.818 33.077 22.099 39.008 40.877 1.08 6.888-1.844 10.836-8.774 11.846H294.85c-9.91.304-9.915 14.695 0 15h13.542c15.88 0 27.894-16.114 23.077-31.363a77.85 77.85 0 0 0-4.405-10.961h38.615c15.88 0 27.894-16.114 23.077-31.363-6.191-19.605-20.026-36.122-37.96-45.834 6.58-8.681 10.071-19.513 9.603-30.586-1.069-25.275-22.494-44.316-47.146-45.15-24.299 0-45.159 19.24-47.041 43.454a47.437 47.437 0 0 0-20.492-.02c-1.9-24.081-22.792-43.39-46.952-43.434-38.409-.302-61.344 45.455-37.656 75.75-17.921 9.715-31.745 26.224-37.934 45.82zm157.889-74.383c0-17.4 14.749-32.188 32.188-32.188 16.759.097 31.445 13.924 32.158 30.784.438 10.374-3.958 20.045-12.062 26.536-4.318 5.112-3.62 9.409 2.095 12.891 18.494 6.818 33.077 22.099 39.008 40.877 1.08 6.888-1.844 10.836-8.774 11.846h-48.24c-6.572-8.086-14.709-14.879-23.929-19.873 6.58-8.681 10.07-19.513 9.602-30.585-.641-15.162-9.173-29.656-21.95-37.8a32.247 32.247 0 0 1-.096-2.488zM176.49 243.571c5.713-3.482 6.411-7.779 2.094-12.891-23.708-18.849-9.882-57.053 20.096-57.32 18.347.106 33.446 16.265 32.098 34.59-22.92 14.056-29.171 47.462-12.379 68.485a79.974 79.974 0 0 0-23.903 19.859h-48.24c-6.93-1.009-9.855-4.958-8.774-11.846 5.93-18.778 20.513-34.06 39.008-40.877z" fill="#0f1c35" data-original="#000000" class=""></path></g></svg>