<svg xmlns="http://www.w3.org/2000/svg" version="1.1" xmlns:xlink="http://www.w3.org/1999/xlink" xmlns:svgjs="http://svgjs.com/svgjs" width="512" height="512" x="0" y="0" viewBox="0 0 60 52" style="enable-background:new 0 0 512 512" xml:space="preserve" class=""><g><g fill="#000" fill-rule="evenodd"><path fill-rule="nonzero" d="M51 0H9a9.011 9.011 0 0 0-9 9v24a9.011 9.011 0 0 0 9 9h4v7.845a1.983 1.983 0 0 0 1.16 1.817 1.987 1.987 0 0 0 2.136-.289L27.367 42H51a9.011 9.011 0 0 0 9-9V9a9.011 9.011 0 0 0-9-9zm7 33a7.008 7.008 0 0 1-7 7H27.367a2 2 0 0 0-1.293.474L15 49.845V42a2 2 0 0 0-2-2H9a7.008 7.008 0 0 1-7-7V9a7.008 7.008 0 0 1 7-7h42a7.008 7.008 0 0 1 7 7z" fill="#0f1c35" data-original="#000000" class=""></path><path d="M55 32a1 1 0 0 0-1 1 3 3 0 0 1-3 3 1 1 0 0 0 0 2 5.006 5.006 0 0 0 5-5 1 1 0 0 0-1-1zM9 4a5.006 5.006 0 0 0-5 5 1 1 0 0 0 2 0 3 3 0 0 1 3-3 1 1 0 0 0 0-2z" fill="#0f1c35" data-original="#000000" class=""></path><g fill-rule="nonzero"><path d="M31.378 6.105a8.953 8.953 0 0 0-9.251 4.533 3 3 0 1 0 5.246 2.912 3 3 0 1 1 3.061 4.421A4.014 4.014 0 0 0 27 21.923V26a3 3 0 0 0 6 0v-2.506a8.916 8.916 0 0 0 5.937-9.562 9.093 9.093 0 0 0-7.559-7.827zm.375 15.676a1 1 0 0 0-.753.969V26a1 1 0 0 1-2 0v-4.077a2.006 2.006 0 0 1 1.717-1.973 4.982 4.982 0 0 0 4.247-5.55 5.034 5.034 0 0 0-4.958-4.4 4.981 4.981 0 0 0-4.382 2.577 1 1 0 0 1-1.748-.971 6.98 6.98 0 0 1 7.2-3.525 7.063 7.063 0 0 1 5.871 6.081 6.936 6.936 0 0 1-5.194 7.619zM30 30a3 3 0 1 0 0 6 3 3 0 0 0 0-6zm0 4a1 1 0 1 1 0-2 1 1 0 0 1 0 2z" fill="#0f1c35" data-original="#000000" class=""></path></g></g></g></svg>