<svg xmlns="http://www.w3.org/2000/svg" version="1.1" xmlns:xlink="http://www.w3.org/1999/xlink" xmlns:svgjs="http://svgjs.com/svgjs" width="512" height="512" x="0" y="0" viewBox="0 0 42.348 42.348" style="enable-background:new 0 0 512 512" xml:space="preserve" class=""><g><path d="M2.491 18.684c0 10.17 17.569 23.005 18.317 23.546a.63.63 0 0 0 .732-.001c.748-.541 18.317-13.375 18.317-23.546C39.857 8.381 31.475 0 21.174 0 10.873.002 2.491 8.383 2.491 18.684zm36.117 0c0 8.824-15.319 20.669-17.433 22.261-2.114-1.591-17.434-13.433-17.434-22.261 0-9.612 7.821-17.433 17.434-17.433s17.433 7.821 17.433 17.433z" fill="#0f1c35" data-original="#000000" class=""></path><path d="M10.692 18.684c0 5.781 4.703 10.484 10.483 10.484 5.781 0 10.484-4.703 10.484-10.484 0-5.78-4.703-10.483-10.484-10.483-5.78 0-10.483 4.703-10.483 10.483zm19.717 0c0 5.091-4.143 9.234-9.234 9.234s-9.233-4.143-9.233-9.234 4.142-9.233 9.233-9.233 9.234 4.142 9.234 9.233z" fill="#0f1c35" data-original="#000000" class=""></path></g></svg>