<svg xmlns="http://www.w3.org/2000/svg" version="1.1" xmlns:xlink="http://www.w3.org/1999/xlink" xmlns:svgjs="http://svgjs.com/svgjs" width="512" height="512" x="0" y="0" viewBox="0 0 32 32" style="enable-background:new 0 0 512 512" xml:space="preserve" class=""><g><path d="M27.311 4H4.689A3.693 3.693 0 0 0 1 7.689v16.622A3.693 3.693 0 0 0 4.689 28h22.622A3.693 3.693 0 0 0 31 24.311V7.689A3.693 3.693 0 0 0 27.311 4ZM4.689 6h22.622A1.691 1.691 0 0 1 29 7.689v.765l-13 8.357L3 8.454v-.765A1.691 1.691 0 0 1 4.689 6Zm22.622 20H4.689A1.691 1.691 0 0 1 3 24.311V10.832l12.459 8.009a1 1 0 0 0 1.082 0L29 10.832v13.479A1.691 1.691 0 0 1 27.311 26Z" data-name="Layer 3" fill="#0f1c35" data-original="#000000" class=""></path></g></svg>