<svg xmlns="http://www.w3.org/2000/svg" version="1.1" xmlns:xlink="http://www.w3.org/1999/xlink" xmlns:svgjs="http://svgjs.com/svgjs" width="512" height="512" x="0" y="0" viewBox="0 0 100 100" style="enable-background:new 0 0 512 512" xml:space="preserve" class=""><g><path d="M21.732 31.251h33.927a3.126 3.126 0 0 0 0-6.25H21.732a3.126 3.126 0 0 0 0 6.25zM21.732 75.001H48.01a3.126 3.126 0 0 0 0-6.25H21.732a3.126 3.126 0 0 0 0 6.25zM21.732 53.125H41.44a3.126 3.126 0 0 0 0-6.25H21.732a3.126 3.126 0 0 0 0 6.25zM69.782 35.263c-11.42 0-20.691 9.271-20.691 20.691 0 11.419 9.271 20.69 20.691 20.69 11.419 0 20.69-9.271 20.69-20.69 0-11.42-9.271-20.691-20.69-20.691zm0 6.25c7.97 0 14.44 6.471 14.44 14.441s-6.47 14.44-14.44 14.44-14.441-6.47-14.441-14.44 6.471-14.441 14.441-14.441z" fill="#0f1c35" data-original="#000000" class=""></path><path d="M66.657 52.829h-4.664a3.126 3.126 0 0 0 0 6.25h4.664v4.664a3.126 3.126 0 0 0 6.25 0v-4.664h4.664a3.126 3.126 0 0 0 0-6.25h-4.664v-4.664a3.126 3.126 0 0 0-6.25 0z" fill="#0f1c35" data-original="#000000" class=""></path><path d="M74.847 78.554a23.306 23.306 0 0 1-6.25.491v3.767a1.561 1.561 0 0 1-1.562 1.563H17.144a1.562 1.562 0 0 1-1.562-1.562V17.187c0-.863.7-1.562 1.562-1.562h49.891a1.564 1.564 0 0 1 1.562 1.563v15.455a23.241 23.241 0 0 1 6.25.491V17.188a7.814 7.814 0 0 0-7.812-7.813H17.144a7.813 7.813 0 0 0-7.812 7.812v65.626a7.813 7.813 0 0 0 7.812 7.812h49.891a7.812 7.812 0 0 0 7.812-7.813z" fill="#0f1c35" data-original="#000000" class=""></path></g></svg>