<svg xmlns="http://www.w3.org/2000/svg" version="1.1" xmlns:xlink="http://www.w3.org/1999/xlink" xmlns:svgjs="http://svgjs.com/svgjs" width="512" height="512" x="0" y="0" viewBox="0 0 32 32" style="enable-background:new 0 0 512 512" xml:space="preserve" class=""><g><path fill="#0f1c35" d="M23.8 24.4a13.83 13.83 0 0 1-2.06-3.93 1 1 0 0 0-1.9.62A15.17 15.17 0 0 0 21.15 24H3.86A15.92 15.92 0 0 0 6 16v-2.5a6.46 6.46 0 0 1 5-6.3 6.16 6.16 0 0 1 1.5-.2h.13a1 1 0 0 0 1.11-.87A1 1 0 0 0 12.87 5a5.57 5.57 0 0 0-1.73.09A1.6 1.6 0 0 1 11 4.5 1.5 1.5 0 0 1 12.5 3a1.52 1.52 0 0 1 1.2.6 1 1 0 1 0 1.6-1.18 3.49 3.49 0 0 0-6.09 3.25A8.46 8.46 0 0 0 4 13.5V16a13.91 13.91 0 0 1-2.8 8.4A1 1 0 0 0 2 26h5a5.49 5.49 0 0 0 11 0h5a1 1 0 0 0 .89-.55 1 1 0 0 0-.09-1.05zM12.5 29a3.5 3.5 0 0 1-3.45-3H16a3.5 3.5 0 0 1-3.5 3z" data-original="#011839" class=""></path><path fill="#2e63f6" d="M23 2a8 8 0 1 0 8 8 8 8 0 0 0-8-8zm1.25 12h-2.5a1 1 0 0 1 0-2H22V8.47a1 1 0 0 1-.62-1.9l1.25-.5a1 1 0 0 1 .93.1A1 1 0 0 1 24 7v5h.25a1 1 0 0 1 0 2z" data-original="#7738c8" class=""></path></g></svg>